# xmcd CD database file generated by OrangeCD 5.2
#
# Track frame offsets:
#	150
#	9923
#	21130
#	30633
#	41000
#	53013
#	64333
#	74898
#	88430
#	101453
#	110468
#	123313
#	134440
#	145243
#	156190
#	168960
#	180963
#	193665
#	206575
#	220365
#	232043
#	242870
#	254383
#	265130
#	276538
#	287248
#	298818
#	311440
#	322940
#
# Disc length: 4349 seconds
#
# Revision: 0
# Processed by: cddbd v1.5PL3 Copyright (c) Steve Scherf et al.
# Submitted via: OrangeCD 5.2
#
DISCID=c010fb1d
DTITLE=The Pilgrim Travelers - Walking Rhythm
DYEAR=1900
DGENRE=A Cappella
TTITLE0=What Are They Doing (My Lord)
TTITLE1=Stretch Out
TTITLE2=My Prayer
TTITLE3=Good News
TTITLE4=Dig a Little Deeper
TTITLE5=Everybody's Gonna Have a Wonderful Time Up There
TTITLE6=Nothing Can Change Me (Since I Found the Lord)
TTITLE7=Jesus
TTITLE8=Thank You Jesus
TTITLE9=What a Friend We Have in Jesus
TTITLE10=Its a Blessing
TTITLE11=Not a One
TTITLE12=He's Pleading in Glory
TTITLE13=Jesus Gave Me Water
TTITLE14=Jesus, He's the One
TTITLE15=King Jesus Will Roll All Burdens Away
TTITLE16=My Eternal Home
TTITLE17=Pass Me Not Oh Gentle Savior
TTITLE18=Footprints of Jesus
TTITLE19=When I Join the Jubilee
TTITLE20=Call Him By His Name
TTITLE21=Welcome Home
TTITLE22=My Road's So Rough and Rocky
TTITLE23=I Love the Lord
TTITLE24=Deliver Me From Evil
TTITLE25=Jesus Is the First Line of Defense
TTITLE26=Peace of Mind
TTITLE27=Angels Tell Mother
TTITLE28=WDIA Radio Station Plus
EXTD=
EXTT0=
EXTT1=
EXTT2=
EXTT3=
EXTT4=
EXTT5=
EXTT6=
EXTT7=
EXTT8=
EXTT9=
EXTT10=
EXTT11=
EXTT12=
EXTT13=
EXTT14=
EXTT15=
EXTT16=
EXTT17=
EXTT18=
EXTT19=
EXTT20=
EXTT21=
EXTT22=
EXTT23=
EXTT24=
EXTT25=
EXTT26=
EXTT27=
EXTT28=
PLAYORDER=
